<?xml version="1.0" encoding="UTF-8"?>
<svg id="Layer_1" xmlns="http://www.w3.org/2000/svg" version="1.1" viewBox="0 0 1000 1000">
  <!-- Generator: Adobe Illustrator 29.4.0, SVG Export Plug-In . SVG Version: 2.1.0 Build 152)  -->
  <defs>
    <style>
      .st0 {
        fill: #00a680;
      }
    </style>
  </defs>
  <path class="st0" d="M645.9,441.1c0-7.5,5.7-13,13.3-13s13.2,5.6,13.2,13-5.7,13.2-13.2,13.2-13.3-5.6-13.3-13.2"/>
  <path class="st0" d="M412.3,469.3c6.1,5.6,9.2,14,9.2,25.2v30.8c0,9.6.8,17.4,2.4,23.3h-21.1c-.8-3.2-1.2-7-1.2-11.4h-.3c-6.3,8.9-15.5,13.4-27.6,13.4s-15.9-2.4-21.1-7.3c-5.2-4.9-7.9-11-7.9-18.5s2.5-13.1,7.6-17.6c5.1-4.5,13.5-7.6,25.4-9.5,7.1-1.1,14.2-1.9,21.3-2.3v-3c0-5.1-1.2-8.9-3.7-11.4-2.5-2.5-5.9-3.7-10.2-3.7s-7.7,1.1-10.1,3.4c-2.4,2.3-3.7,5.4-3.9,9.5h-22.8c.4-8.6,3.8-15.6,10-21.1,6.2-5.5,15.2-8.2,26.8-8.2s21.2,2.8,27.3,8.4M381.8,511.4c-4.9.9-8.4,2.2-10.5,4s-3.2,4.4-3.2,7.7,1.1,5.8,3.3,7.8c2.2,2,5.3,2.9,9.3,2.9s5-.4,7.4-1.3c2.4-.8,4.4-2,5.9-3.6,1.9-1.9,3.2-4,3.8-6.4.7-2.4,1-5.7,1-9.8v-3.2c-6.7.4-12.4,1.1-17.1,1.8"/>
  <path class="st0" d="M482.4,530.2v17.9c-3.6,1.1-7.7,1.7-12.4,1.7-9.8,0-17-2.1-21.4-6.4-4.5-4.3-6.7-11.3-6.7-21.2v-41.2h-13.7v-17.4h13.7v-22.1h23.4v22.1h16.2v17.4h-16.2v37c0,4.7.8,8,2.5,10,1.7,2,4.5,3,8.5,3s4.3-.3,6-.8"/>
  <path class="st0" d="M518.4,472.9c2.9-3.8,6.4-6.6,10.5-8.5,4.1-1.9,8.4-2.8,13-2.8,9.7,0,17.4,3,22.9,9,5.6,6,8.4,14.6,8.4,25.9v52.2h-23.4v-49.9c0-6.2-1.3-10.9-3.9-14.1-2.6-3.1-6.3-4.7-11-4.7s-9.1,2-12.1,5.9c-3.1,4-4.6,9.7-4.6,17.2v45.5h-23.4v-119.2h23.4v43.5h.3Z"/>
  <path class="st0" d="M601.9,435c4.8-4.6,11.8-6.9,20.9-6.9s7.8.4,11.6,1.3v16.6c-1-.3-2.4-.5-4.2-.5-4.2,0-7.4,1-9.4,3.1-2,2.1-3,5.4-3,10.1v4.9h16.1v17.4h-16.1v67.6h-23.1v-67.6h-14.1v-17.4h14.1v-7.7c0-9.3,2.4-16.2,7.2-20.8"/>
  <path class="st0" d="M753.8,470.5c5.6,6,8.4,14.6,8.4,25.9v52.2h-23.4v-49.9c0-6.2-1.3-10.9-3.9-14.1-2.6-3.1-6.3-4.7-11-4.7s-9.1,2-12.1,5.9c-3.1,4-4.6,9.7-4.6,17.2v45.5h-23.4v-85h21.9v10.7h.3c2.9-3.9,6.5-7,10.7-9.3,4.2-2.3,9-3.4,14.2-3.4,9.7,0,17.4,3,22.9,9"/>
  <path class="st0" d="M831,548.6v-11.2h-.3c-2.6,4.2-6,7.5-10.4,9.9-4.3,2.3-9,3.5-14.1,3.5s-13.2-1.8-18.6-5.5c-5.4-3.7-9.5-8.9-12.4-15.6-2.9-6.8-4.3-14.6-4.3-23.5s1.4-16.8,4.3-23.5c2.8-6.8,6.9-12,12.2-15.6,5.3-3.7,11.5-5.5,18.5-5.5s9.5,1.1,13.8,3.3c4.3,2.2,7.7,5.2,10.3,9.1h.3v-44.4h23.4v119.2h-22.8ZM800.3,486.6c-3.3,4.9-5,11.4-5,19.5s1.7,14.6,5,19.5c3.3,4.9,7.8,7.3,13.4,7.3s9.7-2.4,12.9-7.1c3.2-4.7,4.9-11.3,4.9-19.7s-1.6-14.9-4.9-19.7c-3.2-4.7-7.5-7.1-12.9-7.1s-10,2.4-13.4,7.3"/>
  <path class="st0" d="M919.4,463.2v20.3c-3-.6-5.5-.8-7.4-.8-7.1,0-12.6,2.2-16.4,6.6-3.8,4.4-5.7,10.8-5.7,19.2v40.2h-23.4v-85h21.6v12.1h.3c2.8-4.6,6.1-7.9,10-10.1,3.8-2.2,8.3-3.3,13.3-3.3s5.4.3,7.7,1"/>
  <path class="st0" d="M333.7,440.1c7.6,7,11.4,16.6,11.4,28.6s-3.8,21.5-11.4,28.6c-7.6,7-18.6,10.5-33,10.5h-20.7v42.8h-25v-121.1h45.7c14.4,0,25.4,3.5,33,10.5M279.9,487h17.3c14.9,0,22.3-6.1,22.3-18.4s-7.4-18.4-22.3-18.4h-17.3v36.7Z"/>
  <path class="st0" d="M670.9,456.8v91.8h-23.4v-72c0-5.3,1.3-9,8-12.6l15.4-7.2Z"/>
  <path class="st0" d="M147.2,449c-37.9,1.3-58.1,46.4-33.5,75.4,19.7,23.3,56.6,20.9,73.3-4.5,20.4-30.8-3.2-72.2-39.9-71M156.5,416c19.6-2.9,41,14.3,50.3,30.3,23,39.6,11.1,100-36.4,114.2-31.7,9.4-34.3-8.5-53.9-25.2-14.2-12.1-34.9-17.1-43.3-35.2-9.5-20.7-.8-41.4,18.1-52.3,13.7-7.9,28.7-8,42.3-16.9,6.9-4.5,14.7-13.8,22.9-15"/>
</svg>