<?xml version="1.0" encoding="UTF-8"?>
<svg id="Layer_1" data-name="Layer 1" xmlns="http://www.w3.org/2000/svg" viewBox="0 0 3500 1000">
  <defs>
    <style>
      .cls-1 {
        fill: #f5f5f5;
      }
    </style>
  </defs>
  <path class="cls-1" d="M3437.73,173.89c-35.28-3.98-72.48-3.02-110.57,2.87-70.74,10.93-143.43,38.56-210.21,79.89-98.53,60.98-182.04,144.8-262.79,225.86-23.32,23.41-47.44,47.61-71.52,70.87-94.14,90.9-221.96,199.34-376.14,231.25-181.23,37.51-361.49-37.59-480.8-107.2-83.43-48.67-162.23-107.42-238.44-164.23-56.44-42.07-114.79-85.58-174.65-124.72-79.33-51.87-152.98-89.82-225.17-116.04-85.11-30.9-167.76-44.55-245.64-40.56-68.68,3.52-138.75,20.43-214.22,51.7-59.87,24.81-122.49,58.32-197.07,105.46-30.61,19.35-61.4,39.69-91.17,59.37-92.26,60.97-187.66,124.02-291.44,166.4C163.17,649.42,78.43,665.95,0,664.35v1.26c10.02.19,20.18.08,30.46-.33,70-2.8,145.32-19.92,217.8-49.52,103.87-42.42,199.31-105.49,291.61-166.49,29.77-19.68,60.56-40.02,91.16-59.36,109-68.89,254.19-149,410.81-157.02,144.12-7.38,297.94,43.79,470.21,156.44,59.83,39.12,118.17,82.62,174.6,124.68,76.23,56.83,155.06,115.59,238.53,164.29,79.09,46.14,157.62,79.19,233.43,98.22,50.78,12.75,100.17,19.13,147.76,19.13,34.45,0,67.95-3.35,100.32-10.05,67.69-14.01,134.06-42.86,202.91-88.21,54.36-35.8,109.56-81.34,173.72-143.3,24.1-23.27,48.21-47.48,71.54-70.89,80.72-81.02,164.18-164.79,262.61-225.71,128.69-79.65,268.14-104.39,382.52-69.78v-1.08c-20-6.06-40.82-10.33-62.27-12.75Z"/>
  <path class="cls-1" d="M3324.55,185.52c-72.41,6.41-148.34,29.2-219.6,65.91-46.78,24.17-93.75,54.43-143.58,92.52-55.41,42.25-108.81,89.73-160.44,135.65-18.65,16.58-37.93,33.73-57.06,50.41-79.49,69.35-175.4,146.98-284.03,196.93-36.23,16.66-72.75,29.62-108.55,38.53-152.68,38.07-329.17,13.35-496.95-69.62-86.57-42.81-167.64-98.52-246.05-152.4-50.4-34.63-102.52-70.45-155.87-102.71-77.34-46.81-148.32-81.2-216.99-105.16-81.71-28.51-160.73-41.82-234.87-39.58-49.73,1.51-99.73,9.68-152.88,25-72.51,20.88-149.55,54.89-242.43,107.01-32.75,18.37-65.72,37.86-97.6,56.71-86.84,51.33-176.63,104.42-272.96,141.58C180.09,647.33,93.85,673.5,0,675.02v.8c8.93-.14,17.96-.5,27.09-1.08,66.4-4.25,138.31-20.68,207.95-47.52,96.41-37.19,186.24-90.3,273.11-141.65,31.88-18.85,64.84-38.33,97.58-56.7,92.82-52.08,169.78-86.06,242.22-106.92,53.06-15.29,102.99-23.45,152.63-24.96,136.11-4.11,283.73,43.18,451.31,144.6,53.32,32.25,105.43,68.05,155.82,102.68,78.44,53.9,159.55,109.63,246.18,152.47,80.04,39.58,161.75,66.11,242.85,78.86,36.38,5.72,72.25,8.57,107.45,8.57,50.67,0,99.95-5.92,147.34-17.74,35.86-8.93,72.44-21.91,108.72-38.59,108.74-50,204.72-127.69,284.27-197.08,19.13-16.68,38.42-33.83,57.06-50.41,51.62-45.9,105.01-93.37,160.39-135.6,49.79-38.05,96.7-68.28,143.43-92.42,135.67-69.91,279.39-85.83,394.59-45.59v-1.23c-53.33-18.86-112.13-25.58-175.45-19.98Z"/>
  <path class="cls-1" d="M3321.92,194.29c-74.17,1.93-153.34,19.89-228.98,51.94-50.47,21.49-100.65,48.81-153.42,83.54-68.63,44.99-134.63,97.51-198.45,148.31-11.77,9.37-23.95,19.06-35.97,28.56-85.61,67.75-186.29,144.46-297.86,197.2-37.34,17.65-74.73,31.93-111.14,42.46-164.15,47.61-346.37,36.23-513.11-32.04-88.42-36.2-171.12-87.75-251.1-137.59-45.23-28.19-91.99-57.33-139.66-83.68-75.47-41.76-143.77-72.6-208.8-94.28-79.43-26.48-152.71-39.11-224.1-38.6-47.38.35-95.08,6.43-145.82,18.59-69.81,16.72-144.01,44.76-233.51,88.24-36.06,17.51-72.39,36.33-107.52,54.54-80.27,41.59-163.28,84.59-251,116.28C144.57,665.48,69.47,681.27,0,684.88v1c69.59-3.6,144.8-19.42,221.83-47.19,87.78-31.71,170.82-74.73,251.12-116.33,35.13-18.2,71.45-37.02,107.5-54.53,89.43-43.45,163.57-71.46,233.3-88.17,50.67-12.15,98.3-18.22,145.6-18.57,129.66-.93,267.05,41.26,432.41,132.76,47.64,26.33,94.4,55.47,139.61,83.65,80.01,49.87,162.75,101.43,251.25,137.67,81.58,33.4,166.54,53.37,252.54,59.35,18.11,1.26,36.15,1.89,54.11,1.89,70.77,0,140.23-9.77,207.11-29.16,36.46-10.55,73.91-24.85,111.29-42.52,111.66-52.79,212.4-129.53,298.05-197.32,12.02-9.5,24.19-19.2,35.97-28.57,63.81-50.78,129.79-103.29,198.38-148.25,52.72-34.7,102.85-62,153.26-83.46,144.65-61.29,289.81-68.49,406.66-21.67v-1.15c-53.85-21.62-113.52-31.72-178.08-30.04Z"/>
  <path class="cls-1" d="M3319.3,203.05c-76.01-2.51-158.45,10.62-238.36,37.96-54.12,18.64-107.52,43.03-163.26,74.57-84.56,47.6-165.67,106-244.1,162.48l-7.24,5.21c-107.59,77.52-205.31,145.88-311.69,197.47-38.49,18.65-76.75,34.26-113.74,46.4-178.22,58.63-361.24,60.55-529.27,5.54-89.75-29.38-174.12-76.08-255.71-121.24-40.2-22.25-81.76-45.25-123.88-66.2-73.81-36.76-139.43-64.05-200.62-83.41-76.06-24.07-145.84-36.38-213.33-37.62-45.05-.82-90.44,3.17-138.76,12.19-67.32,12.55-138.68,34.63-224.58,69.47-41.41,16.79-83.17,35.25-123.57,53.11-71.7,31.69-145.83,64.46-222.91,90.23C127.51,676.14,58.22,689.67,0,695v.84c6.72-.62,13.51-1.34,20.36-2.17,59.93-7.21,123.27-21.85,188.24-43.52,77.12-25.78,151.28-58.56,222.99-90.26,40.39-17.85,82.15-36.31,123.54-53.1,85.83-34.82,157.13-56.87,224.38-69.41,48.25-9.01,93.57-12.99,138.56-12.18,158.9,2.92,312.1,70.41,413.52,120.92,42.1,20.93,83.66,43.93,123.84,66.17,81.63,45.18,166.05,91.9,255.88,121.32,80.46,26.34,165.24,39.68,252.18,39.67,3.42,0,6.86-.02,10.28-.06,89.67-1.08,179.65-16.27,267.42-45.15,37.03-12.15,75.34-27.78,113.86-46.45,106.45-51.62,204.21-120.01,311.84-197.56l7.24-5.21c78.42-56.46,159.5-114.84,244.01-162.42,55.68-31.5,109.03-55.87,163.09-74.49,151.16-51.72,300.54-50.37,418.74,2.31v-1.22c-54.39-24.39-114.93-37.83-180.7-40Z"/>
  <path class="cls-1" d="M3316.68,211.82c-77.99-6.93-163.66,1.36-247.74,23.99-56.92,15.45-115.16,37.51-173.1,65.59-93.81,45.21-183.96,103.09-268.27,158.5-8.99,5.91-17.99,11.85-27.01,17.8-95.78,63.16-194.83,128.47-298.5,179.94-40.24,19.96-78.29,36.43-116.34,50.33-189.79,69.54-378.39,84.45-545.43,43.12-91.3-22.59-174.18-62.2-261.93-104.14-34.64-16.56-70.47-33.68-106.5-49.46-107.66-47.26-249.86-102.38-394.98-109.17-42.77-1.99-85.85-.09-131.7,5.79-65.15,8.35-133.68,24.46-215.65,50.7-50.79,16.26-102.12,34.95-151.76,53.03-59.12,21.53-120.26,43.8-182.68,62.83C140.83,677.16,71.91,694.76,0,704.57v1.01c72.03-9.82,141.05-27.44,195.38-43.95,62.44-19.04,123.59-41.31,182.73-62.85,49.63-18.07,100.94-36.76,151.72-53.01,81.91-26.23,150.38-42.33,215.47-50.66,45.79-5.88,88.82-7.77,131.53-5.79,144.96,6.79,287.05,61.86,394.63,109.09,36.02,15.78,71.84,32.89,106.47,49.45,87.8,41.96,170.72,81.6,262.12,104.21,61.98,15.34,126.87,23.04,193.71,23.04,26.01,0,52.33-1.17,78.87-3.5,89.39-7.87,181.39-28.96,273.43-62.68,38.08-13.92,76.17-30.4,116.44-50.38,103.73-51.5,202.8-116.82,298.61-180,9.02-5.95,18.03-11.89,27.01-17.8,84.27-55.39,174.4-113.25,268.15-158.44,57.88-28.05,116.06-50.1,172.92-65.53,95.77-25.77,271.28-53.45,430.81,25.94v-1.04c-54.96-27.17-116.39-43.9-183.32-49.85Z"/>
  <path class="cls-1" d="M3056.92,230.61c-60.42,12.4-121.97,31.45-182.94,56.62-102.44,42.06-197.61,96.62-285.19,149.31-25.49,15.35-51.48,31.25-76.63,46.64-85.03,52.03-172.95,105.83-262.72,151.37-41.53,21.06-80.43,38.81-118.93,54.27-203.82,82-392.77,109.16-561.59,80.7-94.16-15.87-180.9-50.34-272.74-86.83-27.57-10.96-56.08-22.29-84.53-32.94-118.48-44.5-246.03-87.09-376.02-97.31-40.02-3.13-81.95-3.33-124.64-.61-62.61,3.98-130.23,14.43-206.71,31.93-70,16.01-137.79,35.62-209.55,56.37-36.77,10.64-74.8,21.63-112.84,32.01C116.28,689.95,55.52,703.97,0,714.13v1.02c55.6-10.17,116.45-24.21,182.16-42.04,38.05-10.37,76.08-21.37,112.86-32.01,71.75-20.75,139.52-40.36,209.5-56.36,76.43-17.49,144-27.93,206.55-31.91,42.64-2.73,84.53-2.52,124.5.6,129.87,10.21,257.34,52.77,375.74,97.25,28.44,10.65,56.95,21.98,84.51,32.94,91.89,36.51,178.68,71,272.94,86.89,43.52,7.34,88.51,11,134.69,11,48.21,0,97.71-4,148.12-11.99,88.76-14.07,182.73-40.91,279.32-79.77,38.53-15.47,77.46-33.23,119.01-54.3,89.8-45.56,177.74-99.37,262.79-151.41,25.14-15.38,51.14-31.29,76.62-46.63,87.55-52.67,182.67-107.21,285.05-149.25,60.91-25.15,122.4-44.18,182.76-56.56,166.04-33.76,320.84-15.97,442.88,49.8v-1.13c-122.16-65.68-277.01-83.41-443.08-49.65Z"/>
  <path class="cls-1" d="M3311.42,229.36c-83.42-16.05-173.09-17.38-266.51-3.95-63.84,9.26-128.7,25.29-192.78,47.64-115.23,40.01-221.98,95.9-302.1,140.13-45.62,25.19-91.94,51.91-136.73,77.75-70.49,40.66-143.39,82.71-216.44,120.52-42.99,22.24-82.74,41.28-121.53,58.21-217.39,94.97-406.38,133.67-577.75,118.29-100.56-9.02-194.76-38.58-294.49-69.87-16.88-5.3-34.34-10.78-51.62-16.08-102.85-31.64-230.85-71.01-357.05-85.45-38.03-4.34-77.59-6.7-117.58-7-61.73-.5-126.42,3.81-197.78,13.17-98.81,12.94-195.54,33.7-310.37,60.9-21.24,5.01-42.61,10.08-63.98,15.14C69.99,706.97,34.77,715.32,0,723.45v1.03c34.85-8.14,70.14-16.51,104.95-24.76,21.37-5.07,42.74-10.13,63.98-15.14,114.8-27.19,211.49-47.95,310.27-60.88,71.31-9.35,135.96-13.66,197.64-13.16,39.96.31,79.48,2.66,117.47,7,126.11,14.43,254.06,53.79,356.87,85.41,17.27,5.3,34.73,10.78,51.61,16.07,99.78,31.31,194.03,60.88,294.7,69.91,25.01,2.24,50.18,3.37,75.64,3.37,69.64,0,141.41-8.42,217.43-25.43,89.26-19.97,182.54-51.47,285.18-96.31,38.81-16.93,78.58-35.98,121.59-58.23,73.07-37.83,145.98-79.88,216.48-120.54,44.79-25.84,91.11-52.55,136.71-77.74,80.09-44.2,186.79-100.07,301.95-140.06,64.02-22.33,128.81-38.34,192.59-47.59,171.95-24.71,330.93,1.36,454.94,73.5v-1.25c-56.19-32.74-119.37-55.98-188.58-69.29Z"/>
  <path class="cls-1" d="M3308.79,238.13c-85.72-20.6-178.54-26.63-275.89-17.92-67.2,6.06-135.37,19.07-202.62,38.66-97.2,28.25-198.57,69.85-319.02,130.94-70.45,35.74-141.31,74.97-209.84,112.9-51.4,28.46-104.55,57.88-157.16,85.63-44.79,23.62-85.39,43.95-124.12,62.14-207.92,97.75-402.2,148.74-593.95,155.88-100.31,3.73-200.4-20.12-297.2-43.19-12.36-2.95-25.14-5.99-37.73-8.94-23.7-5.55-47.95-11.39-71.4-17.04-87.05-20.97-177.06-42.65-266.67-56.55-36.59-5.67-73.77-10.18-110.51-13.4-61.23-5.38-124.76-7.27-188.84-5.6-98.46,2.56-198.83,13.8-298.34,33.41C102.06,705.56,49.75,718.18,0,732.51v1.04c49.8-14.36,102.18-27,155.7-37.51,99.45-19.6,199.77-30.83,298.17-33.39,64.04-1.67,127.54.21,188.73,5.59,36.72,3.22,73.88,7.73,110.45,13.39,89.58,13.89,179.57,35.57,266.59,56.53,23.45,5.65,47.7,11.49,71.4,17.05,12.59,2.94,25.37,5.99,37.73,8.93,90.06,21.46,182.95,43.61,276.29,43.6,7.05,0,14.12-.13,21.18-.39,98.73-3.68,200.73-19.63,303.16-47.4,94.43-25.61,192.4-62.14,291.18-108.57,38.74-18.2,79.36-38.53,124.16-62.16,52.62-27.75,105.77-57.18,157.18-85.64,68.52-37.93,139.37-77.15,209.81-112.89,120.39-61.06,221.71-102.64,318.85-130.87,67.18-19.58,135.29-32.57,202.43-38.63,177.68-15.89,340.83,18.43,467.01,97.11v-1.31c-56.84-35.54-120.9-61.99-191.21-78.88Z"/>
  <path class="cls-1" d="M3390.37,276.52c-57.76-24.41-120.91-41.9-187.71-51.99-124.38-18.79-260.71-11.82-394.23,20.18-225.3,53.98-433.67,167.07-635.18,276.43-26.74,14.51-54.39,29.52-81.58,44.11-215.17,115.49-467.29,240.32-736.81,259.55-190.05,13.56-380.92-25.95-565.51-64.15-59.26-12.27-120.53-24.95-180.82-35.67-144.68-25.74-268.89-34.8-379.73-27.69-65.77,4.22-127.87,14.34-184.56,30.11C29.23,731.56,14.48,736.17,0,741.19v.76c160.12-55.85,357.46-60.63,608.36-16,60.28,10.72,121.55,23.4,180.8,35.67,159.27,32.97,323.2,66.9,487.31,66.9,26.15,0,52.32-.86,78.47-2.73,269.71-19.24,521.95-144.12,737.21-259.66,27.2-14.6,54.85-29.6,81.59-44.12,201.45-109.33,409.76-222.38,634.94-276.33,259.63-62.21,512.3-27.93,691.33,90.99v-1.33c-34.02-22.67-70.69-42.37-109.63-58.82Z"/>
  <path class="cls-1" d="M3398.07,313.82c-57.95-25.56-120.83-44.99-186.9-57.74-123.97-23.93-259.6-24.25-392.2-.94-85.95,15.05-173.02,38.9-266.18,72.91-144.7,52.79-286.02,124.65-422.69,194.14-12.97,6.6-25.95,13.19-38.92,19.77-243.36,123.52-483.24,236.2-742.15,258.04-199.51,16.7-400.18-22.98-594.25-61.34-49.02-9.69-99.72-19.71-149.58-28.67-145.08-26.04-268.28-37.48-376.63-34.96-65.29,1.51-127.01,8.19-183.43,19.83C29.84,698.01,14.78,701.56,0,705.5v1.25c207.68-54.82,438.37-25.69,605.02,4.22,49.86,8.95,100.54,18.97,149.56,28.66,162.8,32.18,330.22,65.29,497.76,65.28,32.26,0,64.54-1.23,96.77-3.93,259.09-21.85,499.07-134.58,742.52-258.14,12.97-6.58,25.95-13.17,38.92-19.77,136.64-69.47,277.94-141.31,422.57-194.09,93.1-33.99,180.11-57.82,266.01-72.87,254.81-44.79,498.17-3.51,680.86,113.3v-1.13c-32.08-20.45-66.15-38.68-101.93-54.47Z"/>
  <path class="cls-1" d="M3219.67,287.62c-123.88-29.17-258.8-36.8-390.17-22.06-88.16,9.79-176.14,28.3-268.98,56.57-162.22,49.35-318.59,124.16-469.81,196.52-225.6,108.11-481.3,230.63-747.49,256.53-211.28,20.32-424.14-20.18-630-59.35-36.49-6.94-74.23-14.12-111.34-20.84-148.27-26.85-266.96-40.27-373.53-42.23C144.84,651.24,69.23,656.78,0,669.59v1.26c200.42-36.74,421.95-7.42,601.69,25.14,37.11,6.72,74.84,13.9,111.33,20.84,167.94,31.95,340.54,64.79,513.18,64.79,39.05,0,78.1-1.68,117.1-5.43,118.18-11.5,243.59-42.62,383.4-95.15,127.12-47.76,253.19-108.17,364.42-161.48,151.19-72.34,307.52-147.14,469.67-196.46,92.78-28.26,180.71-46.75,268.8-56.54,245.42-27.53,484.62,21.81,670.4,136.13v-1.27c-83.33-51.35-177.26-89.52-280.34-113.79Z"/>
  <path class="cls-1" d="M3228.16,319.17c-62.73-17.48-127.86-30-193.55-37.22-64.64-7.11-130.12-9.11-194.59-5.96-89.03,4.23-180.48,17.77-271.8,40.24-163.58,40.18-319.45,107.66-478.01,179.13-12.29,5.55-24.6,11.12-36.93,16.71-228.86,103.61-465.52,210.74-715.9,238.32-226.29,24.61-454.67-17.74-675.52-58.69-20.75-3.85-42.21-7.83-63.32-11.69C398.34,643.42,190.03,614,0,633.63v1.01c189.94-19.64,398.2,9.78,598.36,46.36,21.1,3.86,42.56,7.84,63.32,11.69,110.4,20.47,224.57,41.64,337.15,54.19,70.68,7.88,136.49,11.81,198.55,11.81,48.85,0,95.37-2.44,140.11-7.3,250.54-27.6,487.27-134.77,716.2-238.4,12.33-5.58,24.64-11.15,36.93-16.71,158.52-71.45,314.34-138.91,477.84-179.07,91.26-22.45,182.64-35.98,271.61-40.21,235.35-11.51,470.47,45.92,659.93,159.13v-1.32c-82.65-49.53-173.7-88.3-271.84-115.64Z"/>
  <path class="cls-1" d="M3236.66,350.72c-126.66-40.83-256.57-62.46-386.11-64.29-91.02-1.43-183.41,6.62-274.61,23.9-174.32,32.95-342.38,100.77-486.22,161.74-26.91,11.43-54.36,23.23-80.9,34.64-217.22,93.38-441.84,189.93-677.27,218.88-246.05,29.88-494.78-16-735.31-60.37l-1.03-.19C388.25,626.86,186.47,593.41,0,597.42v1c186.39-4.01,388.11,29.43,595.03,67.59l1.03.19c120.21,22.17,244.51,45.11,367.09,58.3,72.13,7.77,139.58,11.65,203.35,11.65,57.84,0,112.65-3.19,165.17-9.57,235.58-28.97,460.26-125.55,677.55-218.95,26.54-11.41,53.99-23.21,80.9-34.64,143.79-60.95,311.79-128.74,486.01-161.68,91.13-17.27,183.45-25.31,274.41-23.88,227.79,3.23,454.59,67.27,649.46,182.03v-1.13c-82.01-48.17-170.2-87.58-263.34-117.61Z"/>
  <path class="cls-1" d="M3245.16,382.27c-127.9-46.9-257.12-75.64-384.08-85.41-92.87-7.27-186.21-4.73-277.42,7.56-174.68,23.47-340.86,83.25-494.42,144.35-41.09,16.38-82.99,33.57-123.51,50.2-205.85,84.46-418.71,171.79-640.01,201.82-247.26,33.2-498.11-6.86-733.85-50.75-17.15-3.19-34.33-6.41-51.54-9.63C359.93,606.64,174.57,571.95,0,561.17v1.01c174.49,10.78,359.8,45.46,540.15,79.22,17.21,3.22,34.4,6.44,51.54,9.63,116.85,21.75,242.13,43.44,366.5,54.75,61.19,5.57,119.26,8.35,174.86,8.35,67.55,0,131.44-4.11,192.8-12.35,221.42-30.05,434.34-117.4,640.25-201.88,40.52-16.62,82.41-33.81,123.5-50.19,153.5-61.08,319.61-120.83,494.18-144.29,91.14-12.28,184.41-14.83,277.21-7.56,214.78,16.53,437.84,88.62,639,205.29v-1.21c-81.58-47.33-166.91-87.43-254.84-119.67Z"/>
  <path class="cls-1" d="M3253.65,413.82c-129.72-53.41-258.26-89.25-382.04-106.52-94.58-13.3-188.86-16.25-280.23-8.78-182.67,14.89-356.59,72.53-502.62,126.95-54.91,20.5-110.81,42.5-164.87,63.77-194.75,76.64-396.12,155.89-603.99,186.73-252.96,37.24-501,2.34-731.35-40.93-65.55-12.31-132.47-25.78-197.19-38.81C261.56,570.11,128.42,543.3,0,524.69v1.01c128.35,18.61,261.42,45.4,391.16,71.52,64.72,13.03,131.64,26.5,197.2,38.82,146.04,27.43,258.74,43.18,365.4,51.07,49.72,3.68,97.56,5.52,143.89,5.52,77.83,0,151.41-5.2,222.39-15.65,207.98-30.86,409.41-110.13,604.21-186.79,54.06-21.27,109.96-43.27,164.86-63.77,145.97-54.4,319.8-112.02,502.35-126.89,91.3-7.47,185.5-4.52,280.01,8.77,202.16,28.21,417.35,106.65,628.53,228.48v-1.19c-81.73-47.15-164.2-87.93-246.35-121.75Z"/>
  <path class="cls-1" d="M3262.15,445.38c-134.1-61.34-258.4-103.09-380.01-127.64-96.14-19.46-191.37-27.91-283.04-25.11-82.15,2.49-166.72,13.93-258.54,34.97-75.97,17.41-156.13,41.11-252.28,74.59-68.41,23.85-137.9,50.21-205.09,75.7-183.9,69.76-374.05,141.9-569.11,173.3-211.58,33.92-436.37,24.32-728.85-31.11-136.73-25.91-275.12-58.84-408.96-90.68C118.14,515.56,58.87,501.47,0,488.02v1.03c58.79,13.43,117.99,27.5,176.03,41.31,133.85,31.84,272.26,64.77,409.01,90.69,135.31,25.64,254.47,41.14,364.3,47.38,38.02,2.16,75.05,3.24,111.29,3.24,88.52,0,172.25-6.47,253.61-19.51,195.15-31.41,385.36-103.57,569.3-173.35,67.19-25.49,136.67-51.84,205.07-75.69,137.7-47.95,320.16-103.73,510.53-109.5,91.6-2.8,186.75,5.65,282.81,25.09,189.78,38.3,388.62,119.04,618.06,251.64v-1.19c-83.4-48.21-161.98-89.09-237.85-123.8Z"/>
  <path class="cls-1" d="M3137.52,414.39c-191.1-82.72-364.7-124.48-530.71-127.67-118.45-2.27-244.97,15.01-386.8,52.83-126.53,33.74-253.6,80.43-376.48,125.59-173.3,63.68-352.49,129.53-535.29,161.24C862.46,703.73,409.52,579.71,0,451.29v.92c203.83,63.6,393.9,118.28,586.91,154.85,129.1,24.46,247.05,38.46,360.61,42.81,127.48,4.88,245.53-2.48,360.9-22.5,182.88-31.73,362.12-97.59,535.46-161.29,245.39-90.17,499.12-183.41,762.92-178.35,324.1,6.21,631.76,163.33,893.2,315.98v-1c-122.54-71.42-239.83-135.22-362.48-188.31Z"/>
</svg>